# xmcd
# 
# Track frame offsets:
#     150
#     19247
#     37383
#     54946
#     79948
#     102851
#     120977
#     141501
#     160016
#     179624
# 
# Disc length: 2637
# 
# Revision: 0
# Processed by: cddbd v1.5.2PL0 Copyright (c) Steve Scherf et al.
# Submitted via: fre:ac v1.0.27
# 
DISCID=850a4b0a
DTITLE=Element - Still A Child
DYEAR=1997
DGENRE=Contemporary Christian
TTITLE0=Still A Child
TTITLE1=Sweet Freedom
TTITLE2=Encomium
TTITLE3=Go Alone
TTITLE4=Eternity Comes Calling
TTITLE5=Narrow Way
TTITLE6=Vacant
TTITLE7=Amazing Grace
TTITLE8=Final Greetings
TTITLE9=What Could Be
EXTD=
EXTT0=
EXTT1=
EXTT2=
EXTT3=
EXTT4=
EXTT5=
EXTT6=
EXTT7=
EXTT8=
EXTT9=
PLAYORDER=
